<svg fill="#cc0000" width="20" height="20" version="1.1" xmlns="http://www.w3.org/2000/svg" x="0" y="0" viewBox="5 -3 20 20" xml:space="preserve"><path d="M5-3h20v20H5z"/><path fill="#ffffff" d="M14.991 9.234c-.649 0-.834-.621-.896-1.326L13.547.461c0-.729.604-1.325 1.341-1.325h.224c.737 0 1.341.596 1.341 1.325l-.548 7.447c-.042.725-.264 1.326-.914 1.326zm-1.041 2.141c.283-.284.63-.425 1.04-.425s.76.141 1.05.425c.29.283.435.626.435 1.03 0 .456-.147.814-.44 1.074-.293.26-.635.391-1.025.391-.397 0-.744-.129-1.04-.386-.297-.257-.445-.617-.445-1.079 0-.404.142-.747.425-1.03z"/></svg>